<svg width="48" height="48" viewBox="0 0 48 48" fill="none" xmlns="http://www.w3.org/2000/svg">
<path d="M32.4706 33.8C32.3508 33.8 32.2326 33.7941 32.1159 33.7825L32.4706 33.8ZM32.4706 26.8C32.5904 26.8 32.7086 26.8059 32.8253 26.8175L32.4706 26.8Z" fill="white"/>
<path d="M32.4706 33.8C32.3508 33.8 32.2326 33.7941 32.1159 33.7825L32.4706 33.8Z" fill="#FF9900"/>
<path d="M32.4706 33.8L32.1159 33.7825C30.8312 33.653 29.7436 32.8395 29.2417 31.7155C29.133 31.4721 29.0515 31.214 29.001 30.9452C28.9832 30.8508 28.9691 30.7551 28.9591 30.6582C28.9476 30.5426 28.9412 30.4187 28.9412 30.3C28.9412 29.7897 29.0513 29.3048 29.2493 28.8676C29.8013 27.6488 31.0359 26.8 32.4706 26.8L32.8253 26.8175C33.5902 26.8946 34.2896 27.2147 34.8309 27.6978C35.5487 28.3384 36 29.2669 36 30.3L35.9993 30.3699L35.9979 30.4231C35.9952 30.5 35.99 30.5762 35.9824 30.6517C35.8545 31.8937 35.0711 32.9514 33.9814 33.464C33.5234 33.6795 33.0112 33.8 32.4706 33.8Z" fill="#FF9900"/>
<path d="M12 28.8417C13.1838 34.4549 16.7013 38 23.7701 38C27.1384 38 29.8725 37.2554 31.8031 35.8613C29.9397 35.6437 28.3539 34.5264 27.4996 32.9593C26.5626 33.3574 25.4312 33.5686 24.2775 33.5686C20.9967 33.5686 18.2909 32.354 17.4792 28.8417H12Z" fill="white"/>
<path d="M12.7779 17.6483C12.7779 23.4919 18.9456 25.2635 23.8608 26.6753C25.183 27.0551 26.4149 27.409 27.4115 27.8092C28.3359 25.9663 30.2542 24.7 32.4706 24.7L32.5473 24.7005C30.5894 23.3322 27.7603 22.5926 25.1276 21.9043C21.45 20.9429 18.1556 20.0816 18.1556 17.7468C18.1556 15.4818 19.9482 14.4314 22.8907 14.4314C25.5626 14.4314 28.5389 15.1536 29.0463 17.6811H34.2887C33.5785 12.6589 29.6212 10 23.6348 10C16.8703 10 12.7779 12.7245 12.7779 17.6483Z" fill="white"/>
</svg>
