<svg xmlns="http://www.w3.org/2000/svg" width="24" height="28" viewBox="0 0 24 28" fill="none">
  <path d="M20.4706 23.8C20.3508 23.8 20.2326 23.7941 20.1159 23.7825L20.4706 23.8ZM20.4706 16.8C20.5904 16.8 20.7086 16.8059 20.8253 16.8175L20.4706 16.8Z" fill="white"/>
  <path d="M20.4706 23.8C20.3508 23.8 20.2326 23.7941 20.1159 23.7825L20.4706 23.8Z" fill="#FF9900"/>
  <path d="M20.4706 23.8L20.1159 23.7825C18.8312 23.653 17.7436 22.8395 17.2417 21.7155C17.133 21.4721 17.0515 21.214 17.001 20.9452C16.9832 20.8508 16.9691 20.7551 16.9591 20.6582C16.9476 20.5426 16.9412 20.4187 16.9412 20.3C16.9412 19.7897 17.0513 19.3048 17.2493 18.8676C17.8013 17.6488 19.0359 16.8 20.4706 16.8L20.8253 16.8175C21.5902 16.8946 22.2896 17.2147 22.8309 17.6978C23.5487 18.3384 24 19.2669 24 20.3L23.9993 20.3699L23.9979 20.4231C23.9952 20.5 23.99 20.5762 23.9824 20.6517C23.8545 21.8937 23.0711 22.9514 21.9814 23.464C21.5234 23.6795 21.0112 23.8 20.4706 23.8Z" fill="white"/>
  <path d="M0 18.8417C1.18377 24.4549 4.70129 28 11.7701 28C15.1384 28 17.8725 27.2554 19.8031 25.8613C17.9397 25.6437 16.3539 24.5264 15.4996 22.9593C14.5626 23.3574 13.4312 23.5686 12.2775 23.5686C8.99673 23.5686 6.2909 22.354 5.47921 18.8417H0Z" fill="#FF9900"/>
  <path d="M0.777918 7.6483C0.777918 13.4919 6.9456 15.2635 11.8608 16.6753C13.183 17.0551 14.4149 17.409 15.4115 17.8092C16.3359 15.9663 18.2542 14.7 20.4706 14.7L20.5473 14.7005C18.5894 13.3322 15.7603 12.5926 13.1276 11.9043C9.45003 10.9429 6.15562 10.0816 6.15562 7.74678C6.15562 5.48182 7.94824 4.43142 10.8907 4.43142C13.5626 4.43142 16.5389 5.15357 17.0463 7.68112H22.2887C21.5785 2.65886 17.6212 0 11.6348 0C4.87035 0 0.777918 2.72451 0.777918 7.6483Z" fill="#FF9900"/>
</svg>